HIERARCHY
ROOT Hips
{
	OFFSET	0.00	0.00	0.00
	CHANNELS 6 Xposition Yposition Zposition Zrotation Xrotation Yrotation
	JOINT LeftUpLeg
	{
		OFFSET	 0.126116	-0.014019	-0.065224
		CHANNELS 3 Zrotation Xrotation Yrotation
		JOINT LeftLeg
		{
			OFFSET	 0.000000	 0.000000	 0.569914
			CHANNELS 3 Zrotation Xrotation Yrotation
			JOINT LeftFoot
			{
				OFFSET	 0.000000	 0.000000	 0.544423
				CHANNELS 3 Zrotation Xrotation Yrotation
				JOINT LeftToeBase
				{
					OFFSET	 0.000000	 0.000000	 0.207117
					CHANNELS 3 Zrotation Xrotation Yrotation
					End Site
					{
						OFFSET	 0.000000	 0.000000	 0.207117
					}
				}
			}
		}
	}
	JOINT RightUpLeg
	{
		OFFSET	-0.124023	-0.008373	-0.065224
		CHANNELS 3 Zrotation Xrotation Yrotation
		JOINT RightLeg
		{
			OFFSET	 0.000000	 0.000000	 0.570047
			CHANNELS 3 Zrotation Xrotation Yrotation
			JOINT RightFoot
			{
				OFFSET	 0.000000	 0.000000	 0.544354
				CHANNELS 3 Zrotation Xrotation Yrotation
				JOINT RightToeBase
				{
					OFFSET	 0.000000	 0.000000	 0.207540
					CHANNELS 3 Zrotation Xrotation Yrotation
					End Site
					{
						OFFSET	 0.000000	 0.000000	 0.207540
					}
				}
			}
		}
	}
	JOINT Spine
	{
		OFFSET	 0.000184	-0.007763	 0.117403
		CHANNELS 3 Zrotation Xrotation Yrotation
		JOINT Spine1
		{
			OFFSET	 0.000000	 0.000000	 0.137269
			CHANNELS 3 Zrotation Xrotation Yrotation
			JOINT Spine2
			{
				OFFSET	 0.000000	 0.000000	 0.156879
				CHANNELS 3 Zrotation Xrotation Yrotation
				JOINT LeftShoulder
				{
					OFFSET	 0.080501	-0.002496	 0.160144
					CHANNELS 3 Zrotation Xrotation Yrotation
					JOINT LeftArm
					{
						OFFSET	 0.000000	 0.000000	 0.164363
						CHANNELS 3 Zrotation Xrotation Yrotation
						JOINT LeftForeArm
						{
							OFFSET	 0.000000	 0.000000	 0.364576
							CHANNELS 3 Zrotation Xrotation Yrotation
							JOINT LeftHand
							{
								OFFSET	 0.000000	 0.000000	 0.360812
								CHANNELS 3 Zrotation Xrotation Yrotation
								JOINT LeftHandIndex1
								{
									OFFSET	 0.000000	 0.000000	 0.086006
									CHANNELS 3 Zrotation Xrotation Yrotation
									JOINT LeftHandIndex2
									{
										OFFSET	 0.000000	 0.000000	 0.047236
										CHANNELS 3 Zrotation Xrotation Yrotation
										JOINT LeftHandIndex3
										{
											OFFSET	-0.004284	-0.000551	 0.038166
											CHANNELS 3 Zrotation Xrotation Yrotation
											End Site
											{
												OFFSET	-0.004284	-0.000551	 0.038166
											}
										}
									}
								}
							}
						}
					}
				}
				JOINT Neck
				{
					OFFSET	 0.000000	 0.000000	 0.176489
					CHANNELS 3 Zrotation Xrotation Yrotation
					JOINT Head
					{
						OFFSET	 0.000000	-0.001747	 0.077940
						CHANNELS 3 Zrotation Xrotation Yrotation
						End Site
						{
							OFFSET	 0.000000	-0.001747	 0.077940
						}
					}
				}
				JOINT RightShoulder
				{
					OFFSET	-0.080363	 0.000306	 0.159706
					CHANNELS 3 Zrotation Xrotation Yrotation
					JOINT RightArm
					{
						OFFSET	 0.000000	 0.000000	 0.164196
						CHANNELS 3 Zrotation Xrotation Yrotation
						JOINT RightForeArm
						{
							OFFSET	 0.000000	 0.000000	 0.365611
							CHANNELS 3 Zrotation Xrotation Yrotation
							JOINT RightHand
							{
								OFFSET	 0.000000	 0.000000	 0.360648
								CHANNELS 3 Zrotation Xrotation Yrotation
								JOINT RightHandIndex1
								{
									OFFSET	 0.000000	 0.000000	 0.069977
									CHANNELS 3 Zrotation Xrotation Yrotation
									JOINT RightHandIndex2
									{
										OFFSET	 0.000000	 0.000000	 0.052305
										CHANNELS 3 Zrotation Xrotation Yrotation
										JOINT RightHandIndex3
										{
											OFFSET	 0.009002	-0.000782	 0.042196
											CHANNELS 3 Zrotation Xrotation Yrotation
											End Site
											{
												OFFSET	 0.009002	-0.000782	 0.042196
											}
										}
									}
								}
							}
						}
					}
				}
			}
		}
	}
}
MOTION
Frames:    4
Frame Time: 0.03333334
-0.045622	 0.236406	 1.015023	 3.673381	 33.568980	-8.222390	-31.060920	-85.119020	 153.545100	 8.077983	-75.461660	 8.226313	-32.253820	 78.140700	 40.642190	-2.385832	 28.452790	-0.000001	 87.936130	-74.529590	-101.143800	-22.989050	-79.166110	-17.544420	 64.159390	 75.508870	-59.002390	 2.384659	 28.388700	-0.000001	 2.270276	 15.973600	-0.223235	-1.388768	 23.974150	-0.195767	-7.365052	-3.088512	 4.545825	-98.999240	 68.248160	 157.222600	 10.476920	-1.902501	-40.363600	-4.380888	 11.650620	-37.214290	-23.669450	-16.466320	-18.108190	-2.027600	 6.559038	 9.033609	-5.188889	 0.308190	 3.541030	-5.234859	 0.342567	 0.430617	 0.011654	 15.547490	-5.156872	-6.816056	-25.552910	-4.217167	 97.321970	 64.561490	-159.506500	-5.754338	 3.705525	 52.014890	-6.448215	 0.616856	 27.138070	 7.904281	-15.271610	 14.251050	 1.803333	 3.979147	-15.098590	 4.898592	 3.004813	-9.310344	 5.224449	 0.395017	 2.014677
-0.045099	 0.235431	 1.027922	 3.454236	 32.497790	-7.655729	-28.525090	-82.770400	 156.472100	 7.047966	-73.855000	 7.173243	-30.954240	 77.544240	 39.094710	-2.385832	 28.452790	-0.000001	 79.376380	-74.381100	-109.867400	-21.055930	-77.477330	-15.549680	 60.890340	 75.343170	-55.436620	 2.384659	 28.388700	-0.000001	 2.611797	 16.212040	-0.401226	-0.903089	 24.645130	-0.757062	-7.676797	-4.174332	 4.177413	-98.455080	 68.806650	 158.078100	 10.171410	 0.381718	-41.688400	-3.990905	 11.510070	-37.684470	-24.623200	-17.889960	-18.994600	-2.027600	 6.559038	 9.033609	-5.188889	 0.308190	 3.541030	-5.234859	 0.342567	 0.430617	-0.539496	 10.779150	-4.007571	-7.146763	-20.670160	-4.236169	 97.039730	 64.108060	-160.638800	-6.219267	 3.277194	 52.725960	-5.955110	 0.894445	 27.792490	 7.852839	-16.136610	 15.644780	 1.803333	 3.979147	-15.098590	 4.898592	 3.004813	-9.310344	 5.224449	 0.395017	 2.014677
-0.044117	 0.235037	 1.040922	 3.164951	 31.355460	-7.049118	-26.721200	-80.371510	 158.593100	 6.248231	-72.215580	 6.348949	-29.804150	 76.990360	 37.656460	-2.385833	 28.452760	 0.000004	 70.865430	-73.856120	-118.579900	-19.656110	-75.697800	-14.078270	 57.970280	 75.127310	-52.207210	 2.384659	 28.388700	-0.000001	 2.806155	 16.448180	-0.542897	-0.523293	 25.122610	-1.166770	-7.937281	-5.274772	 3.769142	-97.655310	 69.930230	 158.904100	 10.398910	 3.140259	-43.072260	-3.590005	 11.289550	-37.931790	-25.772450	-19.635960	-20.344800	-2.027600	 6.559038	 9.033609	-5.188889	 0.308190	 3.541030	-5.234859	 0.342567	 0.430617	-0.895188	 5.589682	-2.905391	-7.443776	-15.465570	-4.315028	 96.723150	 64.286700	-161.294500	-6.799190	 4.017240	 52.999370	-6.061086	 0.864857	 28.529520	 7.848782	-17.191530	 16.535130	 1.803333	 3.979147	-15.098590	 4.898592	 3.004813	-9.310344	 5.224449	 0.395017	 2.014677
-0.042389	 0.235373	 1.055701	 2.847073	 30.053220	-6.365411	-25.135800	-77.686100	 160.492500	 5.735434	-70.277110	 5.793603	-28.502640	 76.374750	 35.942870	-2.385833	 28.452760	 0.000004	 61.921570	-72.840350	-127.709600	-18.512790	-73.566770	-12.838950	 54.981580	 74.817990	-48.815220	 2.384659	 28.388700	-0.000001	 2.956348	 16.707030	-0.707792	-0.129289	 25.459860	-1.609668	-8.162641	-6.352509	 3.401681	-96.463240	 71.830670	 159.676600	 11.187960	 6.738034	-44.930070	-3.206934	 10.996390	-38.006270	-27.244170	-21.855570	-21.788900	-2.027600	 6.559038	 9.033609	-5.188889	 0.308190	 3.541030	-5.234859	 0.342567	 0.430617	-1.150228	 0.174237	-2.311620	-7.570350	-10.097960	-3.950074	 96.133800	 65.248950	-162.019500	-7.595893	 5.786931	 53.453630	-6.349261	 0.734439	 29.417590	 8.212830	-19.100670	 17.390240	 1.803333	 3.979147	-15.098590	 4.898592	 3.004813	-9.310344	 5.224449	 0.395017	 2.014677
